<?xml version="1.0" standalone="no"?>
<!DOCTYPE svg PUBLIC "-//W3C//DTD SVG 20010904//EN"
 "http://www.w3.org/TR/2001/REC-SVG-20010904/DTD/svg10.dtd">
<svg version="1.0" xmlns="http://www.w3.org/2000/svg"
 width="260.000000pt" height="260.000000pt" viewBox="0 0 260.000000 260.000000"
 preserveAspectRatio="xMidYMid meet">
<metadata>
Created by potrace 1.11, written by Peter Selinger 2001-2013
</metadata>
<g transform="translate(0.000000,260.000000) scale(0.100000,-0.100000)"
fill="#000000" stroke="none">
<path d="M965 2583 c-8 -8 -15 -12 -15 -9 0 3 -8 -2 -18 -11 -11 -10 -17 -21
-16 -24 2 -3 -8 -12 -21 -19 -13 -7 -22 -17 -20 -21 3 -4 -4 -10 -15 -14 -11
-3 -20 -11 -20 -16 0 -5 -6 -9 -14 -9 -8 0 -22 -7 -30 -16 -9 -8 -16 -11 -16
-5 0 7 -8 7 -26 1 -19 -7 -31 -7 -40 1 -11 9 -15 8 -20 -5 -3 -9 -10 -16 -16
-16 -5 0 -6 5 -3 10 9 14 -8 13 -23 -2 -7 -7 -12 -8 -12 -4 0 5 -8 2 -17 -5
-15 -12 -16 -12 -8 1 7 12 6 13 -7 3 -8 -7 -19 -9 -23 -5 -5 4 -5 1 -1 -5 6
-12 -5 -18 -26 -14 -5 0 -8 -3 -8 -9 0 -5 -5 -10 -12 -10 -29 0 -178 -126
-178 -151 0 -6 -5 -7 -12 -3 -8 5 -9 2 -5 -9 4 -10 0 -20 -11 -26 -9 -6 -13
-11 -8 -11 5 0 2 -8 -5 -17 -12 -15 -12 -16 1 -8 13 8 13 7 1 -8 -7 -9 -10
-17 -6 -17 4 0 1 -8 -6 -17 -12 -14 -12 -16 0 -8 11 6 13 4 8 -8 -4 -10 -1
-17 6 -17 8 0 6 -4 -3 -10 -13 -8 -13 -10 0 -10 10 0 11 -3 2 -12 -8 -8 -8
-17 -1 -30 7 -14 6 -20 -6 -24 -8 -3 -15 -13 -15 -21 0 -8 -7 -21 -16 -30 -8
-9 -13 -21 -10 -28 3 -8 -2 -16 -10 -19 -9 -3 -14 -20 -14 -46 0 -25 4 -39 10
-35 6 3 7 -1 4 -9 -3 -9 -1 -16 5 -16 6 0 8 -7 4 -17 -4 -11 -3 -14 5 -9 7 4
12 2 12 -3 0 -16 36 -49 57 -53 10 -2 21 -7 24 -11 3 -4 17 -9 30 -10 13 0 27
-6 32 -12 4 -6 10 -5 17 5 8 12 10 12 10 1 0 -10 3 -11 13 -2 8 6 17 8 20 4 4
-3 7 -1 7 5 0 7 6 11 13 9 6 -1 11 3 10 10 -2 6 6 15 17 18 11 4 20 10 20 15
0 5 7 7 15 4 8 -4 15 -15 15 -25 0 -10 5 -19 12 -19 6 0 8 -3 5 -7 -4 -3 1
-15 10 -26 10 -11 13 -17 6 -14 -8 5 -8 1 0 -18 7 -14 16 -25 20 -25 5 0 5 -4
2 -10 -3 -5 -1 -10 4 -10 6 0 11 -4 11 -10 0 -5 -4 -9 -8 -7 -5 1 -23 -13 -39
-30 -17 -18 -26 -33 -20 -33 8 0 8 -3 -1 -8 -17 -12 -21 -79 -6 -128 7 -23 9
-46 6 -50 -4 -4 -1 -4 6 0 7 4 12 1 12 -8 0 -17 34 -39 44 -29 3 3 6 1 6 -5 0
-7 11 -12 25 -12 20 0 25 -5 25 -25 0 -13 -7 -28 -16 -33 -9 -5 -16 -12 -15
-15 0 -4 -2 -14 -5 -22 -4 -8 -1 -21 5 -28 8 -10 3 -21 -19 -46 -17 -18 -30
-37 -30 -42 0 -6 -5 -7 -12 -3 -6 4 -8 3 -4 -4 3 -6 -1 -17 -9 -26 -9 -8 -22
-31 -30 -51 -9 -19 -19 -35 -23 -35 -5 0 -9 -6 -9 -12 0 -7 -12 -37 -26 -67
-15 -30 -25 -56 -22 -59 2 -2 -2 -11 -10 -19 -8 -8 -15 -25 -15 -37 0 -12 -3
-26 -8 -30 -4 -4 -8 -12 -8 -17 -1 -5 -3 -11 -4 -14 -1 -3 -3 -11 -4 -17 0 -7
-8 -13 -16 -13 -26 -1 -42 -16 -37 -36 3 -11 1 -19 -4 -19 -6 0 -5 -8 1 -20 8
-15 8 -20 -2 -20 -10 0 -10 -2 1 -9 7 -5 9 -11 5 -14 -7 -4 -9 -39 -5 -79 1
-4 8 -14 17 -22 9 -9 11 -16 4 -16 -6 0 -8 -4 -5 -10 3 -5 2 -10 -4 -10 -6 0
-7 -7 -4 -17 4 -10 2 -14 -4 -10 -16 10 -1 -54 22 -91 10 -17 23 -32 28 -32 4
0 6 -4 2 -9 -8 -14 25 -31 61 -31 8 0 12 -5 9 -10 -8 -14 32 -7 47 8 15 15 18
52 7 74 -11 22 12 19 35 -5 17 -16 68 -47 54 -33 -3 4 3 17 14 28 11 11 16 23
11 27 -5 3 -9 15 -9 26 0 11 -6 19 -13 17 -9 -2 -10 2 -3 14 5 9 7 26 5 38 -4
17 -3 18 6 6 8 -11 11 -11 11 -2 0 10 7 9 29 -3 17 -8 38 -12 47 -8 12 4 15 3
10 -5 -7 -11 17 -17 51 -13 6 1 14 -3 18 -9 3 -5 17 -10 31 -10 13 0 25 -6 26
-12 4 -35 3 -68 -2 -68 -3 0 -5 -17 -4 -37 0 -21 -3 -44 -9 -51 -6 -8 -5 -12
4 -12 9 0 10 -3 4 -8 -5 -4 -11 -28 -13 -55 -3 -42 -1 -48 20 -56 13 -5 26 -7
31 -4 4 2 7 0 7 -4 0 -5 12 -10 26 -11 15 -1 32 -6 38 -11 7 -6 17 -6 26 -1
22 14 33 12 26 -6 -4 -10 -2 -13 7 -7 17 11 31 10 39 -2 5 -6 8 -6 8 2 0 6 9
10 20 8 11 -2 22 1 25 6 4 5 9 7 13 5 4 -2 13 2 20 10 7 8 9 14 5 14 -4 0 -2
4 5 8 16 10 -37 72 -61 72 -10 0 -17 4 -17 9 0 6 -9 8 -19 6 -20 -4 -65 27
-55 38 6 6 16 64 18 102 1 25 18 45 31 37 12 -8 44 -11 113 -13 28 -1 52 -5
52 -10 0 -5 5 -8 11 -7 6 2 12 -11 13 -30 0 -17 -1 -32 -4 -32 -3 0 -5 -26 -4
-58 0 -31 -4 -66 -9 -77 -7 -13 -6 -20 2 -23 6 -2 11 -13 11 -23 0 -11 5 -17
10 -14 6 3 10 2 10 -4 0 -5 11 -8 25 -6 14 1 25 -1 25 -6 0 -4 8 -7 18 -7 9 0
25 -3 35 -7 11 -4 17 -3 17 5 0 9 3 10 13 1 8 -6 16 -9 19 -6 2 3 23 6 46 7
49 2 87 25 86 53 -2 40 -4 45 -19 45 -8 0 -15 4 -15 10 0 5 -7 7 -15 4 -8 -4
-15 -2 -15 4 0 5 -10 8 -22 8 -13 -1 -27 1 -33 5 -10 8 -16 9 -38 9 -8 0 -14
7 -14 15 0 8 5 15 10 15 5 0 4 7 -3 15 -8 10 -9 15 -1 15 6 0 9 13 7 31 -4 38
23 70 53 62 13 -3 21 -1 21 8 0 9 3 10 11 2 7 -7 21 -8 39 -3 16 5 31 6 34 2
3 -3 6 0 6 6 0 6 9 9 20 7 11 -2 20 1 20 7 0 6 3 8 7 5 3 -4 12 1 20 11 8 9
11 11 7 3 -4 -9 -3 -12 4 -7 8 5 8 15 2 32 -12 30 -12 37 -2 31 4 -3 8 6 8 19
1 14 -2 21 -8 18 -6 -4 -5 3 2 15 8 17 8 26 0 36 -6 7 -7 15 -3 18 5 3 8 57 8
121 0 64 3 116 7 116 3 0 4 9 1 20 -3 11 0 20 6 20 6 0 11 -5 11 -11 0 -5 5
-7 10 -4 6 3 10 1 10 -6 0 -7 3 -10 6 -7 3 4 17 0 31 -7 15 -8 30 -12 35 -9 5
3 16 0 25 -8 12 -9 15 -9 9 0 -5 8 -1 12 11 12 11 0 24 5 31 12 7 7 12 9 12 4
0 -4 7 -1 15 6 32 29 45 39 45 33 0 -3 12 7 28 23 23 23 34 28 69 25 25 -1 47
3 53 10 39 46 50 62 55 78 4 11 11 19 17 19 6 0 8 3 5 7 -4 3 -2 13 5 20 6 8
13 29 14 46 1 18 3 35 3 39 1 4 8 5 16 2 9 -4 15 0 15 10 0 9 6 16 13 16 8 0
20 11 27 25 7 13 16 22 20 20 5 -3 11 6 14 20 4 14 11 25 17 25 6 0 7 5 4 10
-3 6 -1 10 5 10 6 0 9 4 5 9 -3 5 -1 12 5 16 6 4 8 11 5 16 -4 5 -1 9 6 9 7 0
9 3 6 6 -3 4 -2 15 4 25 7 14 6 19 -3 19 -10 0 -10 2 -1 8 6 4 11 16 10 27 -1
12 3 19 11 17 8 -1 11 2 7 8 -3 6 -11 8 -17 4 -5 -3 -9 2 -8 12 3 27 -11 65
-21 58 -5 -3 -9 -1 -9 4 0 5 -7 9 -15 9 -8 0 -15 -4 -15 -8 0 -5 -8 -13 -19
-18 -16 -9 -17 -7 -13 14 3 19 0 25 -12 25 -10 0 -14 5 -11 10 3 6 1 11 -4 11
-6 1 -17 2 -23 3 -20 2 -38 -20 -44 -54 -7 -34 -28 -37 -56 -7 -12 13 -17 15
-21 5 -4 -10 -6 -10 -6 -1 -1 9 -10 8 -36 -4 -19 -9 -32 -20 -29 -25 3 -4 -1
-11 -10 -14 -8 -3 -12 -12 -9 -20 3 -8 0 -14 -6 -14 -6 0 -10 -6 -8 -12 1 -7
-4 -12 -10 -11 -7 2 -13 -2 -13 -8 0 -5 -4 -7 -10 -4 -5 3 -10 1 -10 -5 0 -6
-4 -8 -10 -5 -6 3 -7 -1 -4 -9 3 -9 2 -16 -4 -16 -6 0 -9 -8 -7 -17 1 -10 -2
-26 -7 -37 -7 -12 -7 -16 0 -12 19 12 20 -43 0 -64 -10 -11 -17 -20 -14 -20 2
0 -9 -14 -24 -31 -35 -36 -47 -69 -30 -79 15 -9 11 -21 -15 -42 -28 -22 -83
-29 -70 -9 3 6 -4 8 -15 6 -15 -3 -20 1 -20 16 0 11 -4 17 -10 14 -17 -10 -11
7 7 20 20 15 27 75 8 75 -7 0 -20 12 -30 26 -9 15 -12 23 -6 20 7 -5 11 1 11
14 0 14 -4 19 -12 14 -10 -6 -10 -4 0 7 6 7 12 28 12 47 0 36 16 75 29 68 4
-3 12 4 19 14 10 17 9 20 -12 26 -26 6 -41 30 -26 39 7 4 6 13 0 25 -7 13 -6
20 3 23 9 4 8 8 -3 16 -13 10 -13 11 0 11 9 0 11 3 5 8 -5 4 -10 16 -9 27 1
20 -20 61 -40 80 -6 6 -28 19 -48 29 -20 11 -35 23 -33 26 2 4 -4 16 -13 26
-10 10 -17 28 -17 39 0 11 -7 26 -15 33 -8 8 -9 11 -3 7 9 -4 11 -1 7 9 -3 9
-10 16 -15 16 -5 0 -8 3 -7 8 1 4 -4 20 -10 35 -7 16 -12 33 -12 38 0 5 -5 9
-11 9 -5 0 -7 5 -4 10 3 6 1 10 -5 10 -6 0 -8 5 -5 10 3 6 1 10 -4 10 -6 0
-11 9 -11 20 0 11 -4 20 -10 20 -5 0 -10 7 -10 15 0 8 -5 15 -11 15 -5 0 -7 5
-4 10 3 6 -1 17 -9 26 -9 9 -14 20 -11 25 4 5 1 9 -5 9 -6 0 -8 5 -5 10 3 6 2
10 -3 10 -5 0 -17 18 -27 40 -10 22 -22 40 -27 40 -4 0 -7 3 -6 8 4 13 -13 52
-23 52 -15 0 -10 38 8 73 9 18 18 35 19 40 1 4 3 10 4 15 1 4 2 10 1 14 0 4 4
19 9 33 6 14 6 24 1 21 -4 -3 -8 9 -9 27 0 17 -6 33 -11 35 -6 2 -11 9 -11 16
0 16 -64 86 -79 86 -6 0 -11 4 -11 9 0 5 -10 12 -22 16 -13 4 -30 9 -38 12 -8
3 -52 6 -98 8 -62 2 -86 -1 -97 -12z m1125 -1304 c0 -11 -4 -19 -10 -19 -5 0
-10 -6 -10 -13 0 -8 -8 -14 -17 -14 -23 0 -47 23 -33 32 6 4 8 10 5 15 -3 5 0
18 6 29 12 17 15 18 36 4 13 -8 23 -24 23 -34z"/>
</g>
</svg>
