<?xml version="1.0" standalone="no"?>
<!DOCTYPE svg PUBLIC "-//W3C//DTD SVG 20010904//EN"
 "http://www.w3.org/TR/2001/REC-SVG-20010904/DTD/svg10.dtd">
<svg version="1.0" xmlns="http://www.w3.org/2000/svg"
 width="300.000000pt" height="300.000000pt" viewBox="0 0 300.000000 300.000000"
 preserveAspectRatio="xMidYMid meet">
<metadata>
Created by potrace 1.16, written by Peter Selinger 2001-2019
</metadata>
<g transform="translate(0.000000,300.000000) scale(0.100000,-0.100000)"
fill="#000000" stroke="none">
<path d="M0 2695 l0 -305 43 -1 c36 0 99 -16 73 -18 -5 -1 -2 -8 5 -18 13 -15
11 -16 -21 -10 -19 3 -50 9 -67 13 l-33 7 0 -141 0 -140 38 11 c20 5 57 9 82
9 25 -1 56 2 70 8 15 5 47 6 80 1 l55 -9 -55 -2 c-63 -3 -132 -17 -91 -19 17
-1 22 -5 17 -17 -6 -15 -4 -15 18 0 14 9 32 16 41 16 22 0 18 -21 -5 -27 -11
-3 -20 -10 -20 -15 0 -5 4 -7 9 -4 4 3 16 -1 27 -8 16 -12 11 -14 -44 -15 -39
0 -62 4 -62 11 0 6 -8 17 -17 24 -16 12 -16 15 -3 24 17 11 -54 12 -105 1
l-30 -6 -3 -88 c-2 -50 1 -93 7 -100 6 -8 6 -18 1 -27 -6 -9 -10 -161 -10
-348 l0 -332 84 2 c76 3 121 -7 88 -19 -6 -3 -9 -9 -6 -15 3 -5 -2 -9 -12 -8
-32 4 -37 1 -25 -14 9 -11 7 -15 -9 -19 -11 -3 -22 -1 -25 3 -6 10 -64 -9 -82
-27 -17 -16 -17 -130 0 -136 9 -4 9 -7 0 -18 -17 -17 -18 -169 -2 -169 8 0 8
-5 -1 -15 -19 -23 -4 -48 26 -42 19 3 24 1 20 -10 -3 -8 -6 -17 -6 -19 0 -2
-11 -4 -25 -4 -38 0 -30 -16 9 -17 20 -1 44 -10 56 -21 21 -19 21 -19 1 -25
-11 -2 -22 1 -25 8 -6 16 -56 26 -57 11 -7 -62 -5 -68 20 -44 10 11 14 10 22
-5 6 -9 19 -17 30 -17 11 0 17 -4 14 -10 -3 -5 -15 -10 -26 -10 -11 0 -17 -4
-14 -10 9 -15 41 -12 55 5 14 17 60 21 60 5 0 -5 -12 -13 -28 -16 -15 -4 -30
-12 -33 -17 -5 -7 -21 -6 -48 0 -23 6 -41 7 -41 3 0 -5 12 -10 27 -12 28 -4
27 -5 -11 -22 -30 -14 -36 -20 -25 -27 10 -6 10 -9 2 -9 -10 0 -13 -50 -13
-215 l0 -215 789 0 c617 0 791 3 794 13 4 9 6 9 6 0 1 -10 50 -13 209 -13 114
0 202 4 196 8 -7 4 -15 55 -19 117 -6 93 -5 107 7 93 8 -11 31 -19 59 -21 25
-2 50 -6 55 -9 16 -9 64 -19 64 -12 0 12 -54 63 -62 58 -4 -3 -8 1 -8 8 0 8
-13 29 -30 48 -35 42 -38 56 -7 35 13 -8 27 -12 30 -8 4 3 7 56 8 117 l1 111
14 -50 c8 -30 9 -51 4 -53 -6 -2 -10 -41 -10 -86 0 -70 3 -86 20 -101 27 -25
34 -15 21 32 -14 47 -15 104 -2 84 5 -8 12 -48 16 -90 l7 -76 55 -52 c32 -28
69 -54 87 -57 27 -6 96 -60 96 -76 0 -3 -32 -5 -71 -4 -38 0 -72 -3 -75 -8 -3
-4 164 -8 370 -8 l375 0 1 183 0 183 -45 -2 c-25 -2 -45 1 -45 7 0 5 -9 9 -20
9 -24 0 -27 25 -4 34 9 3 31 6 49 6 19 0 37 4 40 10 3 5 -1 10 -9 10 -25 0
-19 18 7 22 17 2 23 11 25 37 2 20 -2 37 -10 42 -10 7 -10 9 0 9 6 0 12 4 12
9 0 4 -19 4 -42 -1 -89 -20 -128 -21 -128 -4 0 9 -4 16 -10 16 -5 0 -10 -4
-10 -10 0 -5 -5 -10 -11 -10 -6 0 -8 7 -5 16 5 13 0 15 -34 9 -50 -8 -52 6 -6
34 35 22 72 28 61 11 -4 -6 -11 -8 -16 -5 -5 4 -9 1 -9 -4 0 -6 8 -11 18 -11
10 0 22 -3 25 -6 4 -4 43 -7 87 -8 70 -1 80 1 80 17 0 9 -7 17 -16 17 -8 0
-29 15 -46 33 -17 17 -28 26 -24 20 4 -7 2 -13 -4 -13 -7 0 -10 6 -7 13 2 7
22 12 51 12 44 0 47 1 44 25 -2 14 -12 29 -25 35 -30 13 -29 25 2 25 17 0 25
5 25 18 0 14 -7 17 -32 15 -30 -4 -35 0 -52 37 -19 43 -17 61 4 35 7 -8 18
-15 24 -15 6 0 4 5 -4 10 -13 8 -12 10 3 10 20 0 23 16 5 23 -7 2 -9 8 -5 13
4 4 17 3 27 -4 25 -15 30 -15 30 1 0 6 -20 19 -45 28 -25 9 -45 13 -45 8 0 -5
-9 -9 -20 -9 -11 0 -20 5 -20 10 0 6 -7 10 -15 10 -8 0 -15 4 -15 9 0 15 41
40 56 34 8 -3 20 0 28 6 7 6 16 9 19 6 4 -3 5 -2 2 2 -3 3 3 12 13 19 15 12
14 13 -10 14 -20 0 -28 -5 -28 -17 0 -11 -3 -14 -8 -7 -4 6 -17 14 -30 18 -12
4 -20 12 -17 17 9 13 -9 11 -23 -3 -10 -10 -15 -10 -22 2 -16 25 -12 30 22 30
36 0 95 36 102 62 2 12 14 18 31 18 25 0 26 2 23 47 -2 38 -8 50 -26 59 -12 6
-25 14 -28 17 -11 11 17 47 36 47 13 0 20 7 20 20 0 11 -6 20 -13 20 -20 0
-39 38 -28 58 5 9 12 25 15 35 3 10 10 15 16 12 7 -4 10 50 10 158 l0 164
-157 27 c-87 15 -205 36 -263 47 -121 22 -366 67 -560 102 -74 14 -180 32
-234 41 -129 21 -142 32 -111 92 9 18 13 41 9 62 -6 30 -5 32 24 32 17 0 34
-5 37 -10 7 -11 36 -10 45 1 3 4 37 1 75 -6 169 -32 524 -59 542 -41 10 9 41
7 45 -4 3 -9 113 -31 171 -34 15 0 27 -4 27 -8 0 -13 43 -9 73 7 24 12 29 12
34 0 3 -8 11 -15 19 -15 8 0 31 -9 51 -20 42 -23 84 -26 112 -8 15 9 22 8 36
-5 9 -9 18 -17 21 -17 2 0 4 214 4 475 l0 475 -1500 0 -1500 0 0 -305z m1603
-366 c9 -12 17 -31 17 -44 0 -12 7 -28 15 -35 8 -7 15 -17 15 -22 0 -7 -5 -6
-13 0 -16 14 -45 16 -159 14 -74 -2 -91 -5 -109 -23 -28 -28 -34 -18 -14 21 9
17 15 39 14 48 -3 33 1 42 29 57 41 24 180 13 205 -16z m-918 -14 c54 -4 359
-35 410 -42 28 -4 68 -7 90 -8 22 -1 48 -5 57 -9 9 -4 25 -3 35 2 16 9 19 4
30 -41 7 -31 8 -53 2 -55 -5 -2 -9 -10 -9 -18 0 -9 4 -12 10 -9 5 3 7 0 4 -9
-3 -9 3 -19 16 -26 20 -11 21 -10 15 12 -8 25 -8 25 -6 51 1 20 21 24 21 4 0
-8 9 -25 21 -38 11 -13 18 -31 16 -41 -3 -9 1 -25 8 -35 19 -27 3 -52 -19 -30
-9 8 -16 20 -16 26 0 5 -12 9 -26 8 -22 -2 -29 4 -37 28 -11 33 -24 45 -47 44
-10 0 -8 -5 8 -16 27 -19 30 -84 8 -138 l-15 -35 -46 20 c-26 11 -66 20 -90
20 -57 0 -65 15 -58 106 l6 71 -34 5 c-59 8 -471 78 -527 89 l-52 10 20 28
c15 22 25 27 45 23 16 -3 25 0 25 8 0 9 13 11 53 5 28 -4 66 -9 82 -10z m-35
-229 c30 -8 68 -12 84 -9 17 2 58 -1 91 -7 33 -6 70 -12 82 -13 12 -1 25 -5
29 -9 4 -5 25 -8 46 -8 51 0 50 -10 -6 -57 -24 -20 -78 -15 -131 11 -33 17
-61 24 -90 22 -32 -2 -42 1 -38 11 3 7 0 13 -6 13 -7 0 -21 8 -32 19 -18 16
-31 18 -105 13 -88 -5 -107 1 -51 17 46 13 66 13 127 -3z m-400 -375 c8 -16 5
-23 -20 -41 -21 -15 -28 -26 -21 -34 11 -14 -5 -39 -34 -50 -16 -6 -17 -9 -5
-16 11 -7 11 -11 1 -24 -17 -21 -52 -20 -111 1 l-49 17 6 51 c8 74 15 82 68
83 25 0 51 5 58 10 12 10 43 18 79 21 10 0 22 -8 28 -18z m2433 -134 c18 -8
38 -21 46 -30 14 -18 46 -24 36 -7 -7 12 16 50 31 50 20 0 24 -43 7 -69 l-15
-24 45 6 c32 5 48 2 56 -7 9 -11 7 -15 -6 -21 -10 -5 -22 -7 -26 -6 -5 1 -22
3 -38 5 -17 2 -37 12 -45 22 -11 14 -17 15 -20 7 -3 -7 -10 -13 -15 -13 -6 0
-9 6 -8 13 5 39 -16 48 -66 25 -19 -9 -25 -19 -25 -45 0 -29 -3 -33 -25 -33
-16 0 -25 -6 -25 -15 0 -10 -10 -15 -30 -15 -32 0 -80 19 -80 32 0 9 -31 11
-54 2 -9 -3 -12 -12 -9 -22 5 -12 2 -14 -13 -8 -10 5 -27 11 -36 13 -10 3 -18
13 -18 23 0 16 9 18 68 18 92 1 112 4 112 20 0 10 8 12 33 7 49 -11 49 -11 54
1 2 7 -11 14 -34 16 -21 3 -46 8 -56 13 -15 6 -18 4 -15 -11 2 -16 -2 -18 -25
-16 -16 2 -37 12 -48 23 -10 10 -17 19 -15 19 2 0 11 3 19 6 9 3 16 -3 20 -16
7 -25 34 -22 29 4 -2 13 6 16 45 16 26 1 59 7 73 15 31 18 34 18 73 2z m-23
-386 c0 -5 21 -10 48 -9 77 0 175 -11 185 -21 5 -5 7 -17 4 -25 -5 -13 -15
-15 -44 -11 -21 4 -51 7 -68 8 -20 2 -33 10 -42 27 l-12 24 -6 -25 c-5 -22
-12 -24 -71 -27 -50 -2 -64 0 -58 9 5 9 2 10 -10 6 -10 -4 -22 -7 -27 -7 -14
0 -11 -17 4 -18 6 0 39 -7 72 -15 34 -7 70 -10 80 -7 30 11 36 2 20 -29 -29
-58 -170 -57 -179 1 -5 36 -41 44 -81 19 -5 -3 -21 -6 -35 -6 -21 0 -25 5 -25
30 0 33 30 55 78 55 31 0 35 -16 10 -36 -12 -9 -14 -13 -5 -14 7 0 28 11 46
25 19 14 40 23 49 19 10 -3 20 2 27 15 11 21 40 29 40 12z m-2258 -75 c45 -48
50 -58 38 -81 -13 -25 -7 -45 15 -45 8 0 18 -7 23 -16 7 -12 14 -14 27 -7 12
7 14 13 6 17 -18 11 -13 26 9 26 16 0 20 -7 20 -30 0 -18 -6 -33 -15 -36 -9
-4 -15 -19 -15 -36 0 -19 -4 -28 -12 -25 -7 2 -13 18 -13 35 0 39 -14 53 -29
27 -6 -10 -23 -30 -38 -44 -16 -14 -28 -31 -28 -38 0 -7 -7 -10 -15 -7 -8 4
-15 2 -15 -4 0 -13 49 -22 56 -11 8 14 44 11 59 -5 16 -16 10 -26 -17 -26 -14
0 -18 -6 -16 -22 3 -20 -1 -23 -30 -20 -18 1 -43 -5 -57 -14 -31 -20 -44 -12
-43 26 1 23 6 30 22 31 16 1 17 2 4 6 -10 2 -15 10 -11 19 6 17 -8 19 -24 3
-13 -13 -63 -4 -63 11 0 6 14 10 31 10 26 0 29 3 24 20 -5 16 -2 20 14 20 12
0 21 6 21 14 0 8 6 17 13 19 22 10 -14 26 -47 21 -33 -5 -55 8 -74 41 -10 17
-11 18 -12 3 0 -25 -15 -23 -17 2 -1 14 4 20 20 20 18 0 19 2 7 11 -11 8 -12
12 -2 16 17 7 15 30 -4 37 -9 4 -14 9 -11 13 4 3 14 0 22 -7 13 -11 19 -10 38
8 33 31 116 42 139 18z m298 -350 c0 -7 -8 -12 -17 -13 -30 -3 -143 -37 -143
-44 0 -3 9 -14 21 -25 20 -18 22 -18 34 -1 16 22 25 22 25 -2 0 -11 -9 -23
-22 -27 -12 -3 -29 -13 -37 -22 -10 -9 -16 -11 -19 -4 -2 8 -12 6 -28 -4 -13
-9 -30 -14 -38 -11 -22 9 -16 56 10 76 28 22 30 31 9 31 -21 0 -19 27 3 38 9
5 45 8 80 7 34 -1 62 2 62 6 0 4 14 7 30 7 17 -1 30 -6 30 -12z m-345 -96 c9
0 12 -6 9 -15 -4 -8 -16 -15 -28 -15 -19 0 -19 -2 8 -25 16 -14 34 -25 40 -25
6 0 0 -10 -14 -21 l-25 -20 23 -16 c12 -8 22 -22 22 -30 0 -11 4 -11 21 -2 14
7 18 14 11 18 -19 12 -1 51 26 58 16 4 27 2 30 -5 5 -15 32 -16 32 -2 0 6 -6
10 -12 11 -7 0 -2 4 10 10 29 11 46 3 38 -18 -5 -12 -1 -14 19 -10 20 3 25 1
23 -12 -2 -12 -12 -15 -36 -13 -35 4 -72 -19 -72 -44 0 -8 -12 -17 -27 -20
-15 -4 -33 -13 -40 -20 -16 -15 -53 -7 -53 12 0 8 -7 14 -15 14 -13 0 -14 4
-4 21 11 21 10 21 -45 15 -44 -6 -59 -4 -71 8 -9 8 -11 17 -6 21 5 3 12 1 16
-5 3 -5 14 -10 23 -10 13 0 12 3 -6 16 -12 8 -36 14 -52 12 -16 -1 -30 1 -30
5 -1 39 0 40 37 34 20 -4 40 -11 43 -18 5 -7 16 -8 31 -4 l24 8 -27 9 c-25 9
-27 12 -16 31 6 12 11 23 10 24 -1 2 1 10 5 19 9 23 46 35 56 18 4 -8 14 -14
22 -14z"/>
</g>
</svg>
